<svg width="22" height="16" viewBox="0 0 22 16" fill="none" xmlns="http://www.w3.org/2000/svg">
<path d="M16.5 0.508301C14.55 0.508301 12.45 0.863207 11 1.8392C9.55 0.863207 7.45 0.508301 5.5 0.508301C4.05 0.508301 2.51 0.703499 1.22 1.20924C0.49 1.50204 0 2.132 0 2.85068V12.859C0 14.0125 1.22 14.8643 2.48 14.5803C3.46 14.3585 4.5 14.2609 5.5 14.2609C7.06 14.2609 8.72 14.4916 10.06 15.0772C10.66 15.3434 11.34 15.3434 11.93 15.0772C13.27 14.4827 14.93 14.2609 16.49 14.2609C17.49 14.2609 18.53 14.3585 19.51 14.5803C20.77 14.8731 21.99 14.0213 21.99 12.859V2.85068C21.99 2.132 21.5 1.50204 20.77 1.20924C19.49 0.703499 17.95 0.508301 16.5 0.508301ZM20 11.8032C20 12.3622 19.42 12.7703 18.8 12.6727C18.05 12.5485 17.27 12.4953 16.5 12.4953C14.8 12.4953 12.35 13.072 11 13.8262V3.61373C12.35 2.85955 14.8 2.28283 16.5 2.28283C17.42 2.28283 18.33 2.36269 19.2 2.53127C19.66 2.61999 20 2.98377 20 3.40079V11.8032Z" fill="#6D5CDE"/>
<path d="M12.98 6.28438C12.66 6.28438 12.37 6.10692 12.27 5.823C12.14 5.47696 12.36 5.09544 12.75 4.98897C14.29 4.54534 16.28 4.40337 18.11 4.5897C18.52 4.63406 18.82 4.96235 18.77 5.32613C18.72 5.68991 18.35 5.95609 17.94 5.91172C16.32 5.74314 14.55 5.87623 13.21 6.25776C13.13 6.26663 13.05 6.28438 12.98 6.28438Z" fill="#6D5CDE"/>
<path d="M12.98 8.64448C12.66 8.64448 12.37 8.46703 12.27 8.18311C12.14 7.83707 12.36 7.45555 12.75 7.34908C14.28 6.90544 16.28 6.76348 18.11 6.94981C18.52 6.99417 18.82 7.32246 18.77 7.68624C18.72 8.05002 18.35 8.3162 17.94 8.27183C16.32 8.10325 14.55 8.23634 13.21 8.61787C13.13 8.63561 13.05 8.64448 12.98 8.64448Z" fill="#6D5CDE"/>
<path d="M12.98 11.0046C12.66 11.0046 12.37 10.8271 12.27 10.5432C12.14 10.1972 12.36 9.81566 12.75 9.70918C14.28 9.26555 16.28 9.12359 18.11 9.30991C18.52 9.35428 18.82 9.68257 18.77 10.0463C18.72 10.4101 18.35 10.6674 17.94 10.6319C16.32 10.4634 14.55 10.5964 13.21 10.978C13.13 10.9957 13.05 11.0046 12.98 11.0046Z" fill="#6D5CDE"/>
</svg>
