<svg width="24" height="22" viewBox="0 0 24 22" fill="none" xmlns="http://www.w3.org/2000/svg">
<g clip-path="url(#clip0_15_57)">
<path d="M12.65 14.4191C12.79 14.0997 12.7 13.7359 12.42 13.4874L10.33 11.6597L10.36 11.6331C12.1 9.91177 13.34 7.93317 14.07 5.83922H16.01C16.55 5.83922 17 5.43995 17 4.96083V4.94308C17 4.46396 16.55 4.06469 16.01 4.06469H10V3.17743C10 2.68943 9.55 2.29016 9 2.29016C8.45 2.29016 8 2.68943 8 3.17743V4.06469H1.99C1.45 4.06469 1 4.46396 1 4.94308C1 5.43108 1.45 5.82148 1.99 5.82148H12.17C11.5 7.54277 10.44 9.16647 9 10.5861C8.19 9.79642 7.51 8.93578 6.94 8.03077C6.78 7.77346 6.49 7.61375 6.16 7.61375C5.47 7.61375 5.03 8.2792 5.37 8.81156C6 9.81417 6.77 10.7724 7.67 11.6597L3.3 15.4838C2.9 15.8298 2.9 16.3977 3.3 16.7437C3.69 17.0897 4.32 17.0897 4.72 16.7437L9 12.9373L11.02 14.7296C11.53 15.1821 12.4 15.0135 12.65 14.4191V14.4191ZM17.5 9.38828C16.9 9.38828 16.36 9.71657 16.15 10.2223L12.48 18.9175C12.24 19.4587 12.7 20.0355 13.35 20.0355C13.74 20.0355 14.09 19.8225 14.23 19.4942L15.12 17.3737H19.87L20.77 19.4942C20.91 19.8136 21.26 20.0355 21.65 20.0355C22.3 20.0355 22.76 19.4587 22.53 18.9175L18.86 10.2223C18.64 9.71657 18.1 9.38828 17.5 9.38828V9.38828ZM15.88 15.5991L17.5 11.7573L19.12 15.5991H15.88V15.5991Z" fill="#6D5CDE"/>
</g>
<defs>
<clipPath id="clip0_15_57">
<rect width="24" height="21.2944" fill="white" transform="translate(0 0.515625)"/>
</clipPath>
</defs>
</svg>
