<svg width="32" height="32" viewBox="0 0 32 32" fill="none" xmlns="http://www.w3.org/2000/svg">
<path d="M3.63636 0C1.64773 0 0 1.64773 0 3.63636V28.3636C0 30.3523 1.64773 32 3.63636 32H28.3636C30.3523 32 32 30.3523 32 28.3636V3.63636C32 1.64773 30.3523 0 28.3636 0H3.63636ZM3.63636 2.90909H28.3636C28.7784 2.90909 29.0909 3.22159 29.0909 3.63636V28.3636C29.0909 28.7784 28.7784 29.0909 28.3636 29.0909H3.63636C3.22159 29.0909 2.90909 28.7784 2.90909 28.3636V3.63636C2.90909 3.22159 3.22159 2.90909 3.63636 2.90909ZM7.90909 5.40909C6.52841 5.40909 5.40909 6.52841 5.40909 7.90909C5.40909 9.28977 6.52841 10.4091 7.90909 10.4091C9.28977 10.4091 10.4091 9.28977 10.4091 7.90909C10.4091 6.52841 9.28977 5.40909 7.90909 5.40909ZM21.0455 12.0455C18.9602 12.0455 17.5739 13.1875 17 14.2727H16.9091V12.3636H12.8182V26.1818H17.0909V19.3636C17.0909 17.5625 17.4489 15.8182 19.6818 15.8182C21.8807 15.8182 21.9091 17.8523 21.9091 19.4545V26.1818H26.1818V18.5909C26.1818 14.875 25.392 12.0455 21.0455 12.0455ZM5.81818 12.3636V26.1818H10.1364V12.3636H5.81818Z" fill="#6D5CDE"/>
</svg>
