<svg width="294" height="34" viewBox="0 0 294 34" fill="none" xmlns="http://www.w3.org/2000/svg">
<path d="M25.36 33.92C23.024 30.272 20.784 26.848 18.64 23.648C16.496 20.448 14.592 17.648 12.928 15.248C11.264 12.816 9.93604 10.912 8.94404 9.53599C7.98404 8.15999 7.50404 7.47199 7.50404 7.47199H7.26404L7.02404 27.968C7.02404 28.672 7.13604 29.168 7.36004 29.456C7.58404 29.744 7.96804 29.888 8.51204 29.888C8.67204 29.888 8.94404 29.888 9.32804 29.888C9.74404 29.856 10.112 29.84 10.432 29.84C10.784 29.84 10.96 29.84 10.96 29.84L11.056 30.032L10.624 32.192C10.624 32.192 10.448 32.176 10.096 32.144C9.77604 32.144 9.36004 32.128 8.84804 32.096C8.33604 32.064 7.77604 32.032 7.16804 32C6.59204 32 6.04804 32 5.53604 32C4.89604 32 4.22404 32.032 3.52004 32.096C2.84804 32.16 2.27204 32.224 1.79204 32.288C1.31204 32.352 1.07204 32.384 1.07204 32.384L1.31204 30.176C2.30404 30.048 3.04004 29.76 3.52004 29.312C4.00004 28.864 4.25604 28.144 4.28804 27.152L4.91204 6.17599C4.91204 5.18399 4.60804 4.47999 4.00004 4.06399C3.42404 3.64799 2.33604 3.35999 0.736041 3.19999L0.592041 2.95999L0.976041 1.18399C0.976041 1.18399 1.21604 1.19999 1.69604 1.23199C2.20804 1.26399 2.78404 1.31199 3.42404 1.37599C4.09604 1.40799 4.65604 1.42399 5.10404 1.42399C5.64804 1.42399 6.16004 1.40799 6.64004 1.37599C7.12004 1.34399 7.52004 1.31199 7.84004 1.27999C8.16004 1.24799 8.32004 1.23199 8.32004 1.23199C9.92004 3.69599 11.488 6.09599 13.024 8.43199C14.592 10.768 16.064 12.944 17.44 14.96C18.816 16.976 20.032 18.736 21.088 20.24C22.144 21.744 22.96 22.928 23.536 23.792C24.144 24.624 24.448 25.04 24.448 25.04H24.688V5.59999C24.688 4.89599 24.56 4.38399 24.304 4.06399C24.048 3.71199 23.648 3.53599 23.104 3.53599C22.688 3.53599 22.272 3.55199 21.856 3.58399C21.472 3.58399 21.28 3.58399 21.28 3.58399L21.184 3.39199L21.616 1.23199C21.616 1.23199 21.776 1.24799 22.096 1.27999C22.416 1.27999 22.816 1.29599 23.296 1.32799C23.776 1.35999 24.272 1.39199 24.784 1.42399C25.296 1.42399 25.76 1.42399 26.176 1.42399C26.848 1.42399 27.552 1.39199 28.288 1.32799C29.024 1.26399 29.648 1.19999 30.16 1.13599C30.672 1.07199 30.928 1.03999 30.928 1.03999L30.688 3.24799C29.6 3.37599 28.784 3.67999 28.24 4.15999C27.728 4.63999 27.456 5.34399 27.424 6.27199L26.752 33.248L25.36 33.92Z" fill="black"/>
<path d="M35.188 32.576L35.476 30.368C36.98 30.08 37.988 29.664 38.5 29.12C39.044 28.544 39.316 27.584 39.316 26.24L39.364 6.07999C39.364 5.05599 39.236 4.36799 38.98 4.01599C38.756 3.66399 38.292 3.48799 37.588 3.48799C37.364 3.48799 37.044 3.50399 36.628 3.53599C36.244 3.53599 35.892 3.55199 35.572 3.58399L35.476 3.39199L35.812 1.27999C36.644 1.31199 37.62 1.34399 38.74 1.37599C39.892 1.40799 40.82 1.42399 41.524 1.42399C42.196 1.42399 43.044 1.39199 44.068 1.32799C45.124 1.23199 46.116 1.11999 47.044 0.991993L46.852 3.15199C45.54 3.31199 44.644 3.58399 44.164 3.96799C43.716 4.31999 43.46 4.95999 43.396 5.88799C43.3 7.64799 43.204 9.51999 43.108 11.504C43.044 13.488 42.98 15.456 42.916 17.408C42.852 19.328 42.804 21.104 42.772 22.736C42.74 24.336 42.724 25.632 42.724 26.624C42.724 27.904 42.868 28.768 43.156 29.216C43.444 29.664 44.004 29.888 44.836 29.888C45.284 29.888 45.748 29.872 46.228 29.84C46.708 29.808 47.092 29.776 47.38 29.744L47.476 29.936L47.044 32.144C46.468 32.112 45.796 32.08 45.028 32.048C44.26 32.048 43.492 32.032 42.724 32C41.956 32 41.3 32 40.756 32C40.052 32 39.172 32.048 38.116 32.144C37.092 32.272 36.116 32.416 35.188 32.576Z" fill="black"/>
<path d="M66.1158 32.576C63.2038 32.576 60.6758 31.968 58.5318 30.752C56.3878 29.536 54.7238 27.824 53.5398 25.616C52.3558 23.376 51.7638 20.752 51.7638 17.744C51.7638 15.312 52.1798 13.072 53.0118 11.024C53.8438 8.94399 55.0118 7.15199 56.5158 5.64799C58.0198 4.11199 59.7798 2.92799 61.7958 2.09599C63.8438 1.26399 66.0838 0.847992 68.5158 0.847992C69.5078 0.847992 70.4998 0.911992 71.4918 1.03999C72.4838 1.13599 73.3798 1.26399 74.1798 1.42399C74.9798 1.58399 75.6198 1.72799 76.0998 1.85599C76.6118 1.95199 76.8678 1.99999 76.8678 1.99999L77.0598 2.28799C77.0598 2.28799 76.9798 2.65599 76.8198 3.39199C76.6598 4.09599 76.4838 5.05599 76.2918 6.27199C76.0998 7.48799 75.9558 8.83199 75.8598 10.304L73.5558 10.496C73.5558 10.496 73.5718 10.24 73.6038 9.72799C73.6678 9.18399 73.6998 8.65599 73.6998 8.14399C73.6998 6.63999 73.1078 5.51999 71.9238 4.78399C70.7718 4.04799 69.0118 3.67999 66.6438 3.67999C64.4998 3.67999 62.6278 4.19199 61.0278 5.21599C59.4598 6.23999 58.2438 7.67999 57.3798 9.53599C56.5158 11.392 56.0838 13.6 56.0838 16.16C56.0838 18.976 56.5318 21.44 57.4278 23.552C58.3558 25.632 59.6358 27.264 61.2678 28.448C62.9318 29.6 64.8678 30.176 67.0758 30.176C69.2518 30.176 70.9958 29.568 72.3078 28.352C73.6518 27.104 74.6278 25.184 75.2358 22.592L77.5398 22.4C77.5398 22.4 77.4918 22.64 77.3958 23.12C77.2998 23.6 77.1718 24.24 77.0118 25.04C76.8838 25.808 76.7398 26.656 76.5798 27.584C76.4518 28.48 76.3398 29.36 76.2438 30.224L75.9558 30.656C75.9558 30.656 75.5238 30.816 74.6598 31.136C73.8278 31.456 72.6758 31.776 71.2038 32.096C69.7318 32.416 68.0358 32.576 66.1158 32.576Z" fill="black"/>
<path d="M94.5442 32.576C91.9202 32.576 89.6002 31.952 87.5842 30.704C85.6002 29.456 84.0482 27.712 82.9282 25.472C81.8082 23.232 81.2482 20.656 81.2482 17.744C81.2482 15.376 81.6482 13.168 82.4482 11.12C83.2482 9.07199 84.3682 7.27999 85.8082 5.74399C87.2482 4.20799 88.9282 3.00799 90.8482 2.14399C92.7682 1.27999 94.8322 0.847992 97.0402 0.847992C99.7282 0.847992 102.08 1.47199 104.096 2.71999C106.144 3.96799 107.744 5.71199 108.896 7.95199C110.048 10.16 110.624 12.72 110.624 15.632C110.624 18.032 110.208 20.256 109.376 22.304C108.576 24.352 107.44 26.144 105.968 27.68C104.528 29.216 102.832 30.416 100.88 31.28C98.9282 32.144 96.8162 32.576 94.5442 32.576ZM96.0322 30.128C98.0802 30.128 99.8722 29.6 101.408 28.544C102.944 27.488 104.144 26.032 105.008 24.176C105.904 22.288 106.352 20.112 106.352 17.648C106.352 14.896 105.888 12.48 104.96 10.4C104.032 8.31999 102.752 6.68799 101.12 5.50399C99.4882 4.31999 97.5842 3.72799 95.4082 3.72799C93.4242 3.72799 91.6802 4.25599 90.1762 5.31199C88.6722 6.36799 87.4882 7.83999 86.6242 9.72799C85.7922 11.584 85.3762 13.744 85.3762 16.208C85.3762 18.928 85.8242 21.344 86.7202 23.456C87.6162 25.536 88.8642 27.168 90.4642 28.352C92.0962 29.536 93.9522 30.128 96.0322 30.128Z" fill="black"/>
<path d="M115.827 32.48L116.115 30.272C117.363 30.08 118.211 29.712 118.659 29.168C119.139 28.592 119.379 27.616 119.379 26.24L119.427 6.07999C119.427 5.05599 119.315 4.36799 119.091 4.01599C118.867 3.66399 118.387 3.48799 117.651 3.48799C117.363 3.48799 117.011 3.50399 116.595 3.53599C116.211 3.56799 116.019 3.58399 116.019 3.58399L115.923 3.39199L116.259 1.27999C116.259 1.27999 116.579 1.29599 117.219 1.32799C117.859 1.35999 118.595 1.39199 119.427 1.42399C120.291 1.42399 121.027 1.42399 121.635 1.42399C122.147 1.42399 122.691 1.40799 123.267 1.37599C123.875 1.31199 124.435 1.26399 124.947 1.23199C125.491 1.16799 125.923 1.11999 126.243 1.08799C126.595 1.02399 126.771 0.991993 126.771 0.991993L126.579 3.15199C125.523 3.27999 124.787 3.48799 124.371 3.77599C123.955 4.06399 123.715 4.51199 123.651 5.11999C123.587 5.69599 123.507 6.52799 123.411 7.61599C123.283 9.59999 123.171 11.76 123.075 14.096C122.979 16.4 122.915 18.624 122.883 20.768C122.851 22.88 122.835 24.672 122.835 26.144C122.835 27.232 122.915 28.048 123.075 28.592C123.267 29.104 123.651 29.44 124.227 29.6C124.835 29.76 125.731 29.84 126.915 29.84C128.323 29.84 129.459 29.76 130.323 29.6C131.187 29.44 131.875 29.12 132.387 28.64C132.931 28.16 133.363 27.472 133.683 26.576C134.003 25.68 134.291 24.496 134.547 23.024L136.659 22.784L136.803 23.024C136.803 23.024 136.723 23.456 136.563 24.32C136.403 25.184 136.211 26.304 135.987 27.68C135.795 29.056 135.603 30.544 135.411 32.144L135.171 32.432C135.171 32.432 134.723 32.4 133.827 32.336C132.931 32.304 131.795 32.256 130.419 32.192C129.043 32.16 127.619 32.112 126.147 32.048C124.707 32.016 123.411 32 122.259 32C121.075 32 119.987 32.032 118.995 32.096C118.035 32.192 117.267 32.272 116.691 32.336C116.115 32.432 115.827 32.48 115.827 32.48Z" fill="black"/>
<path d="M154.045 32.48L153.901 32.144L154.093 30.272C155.213 30.176 156.077 30.064 156.685 29.936C157.293 29.808 157.725 29.632 157.981 29.408C158.237 29.152 158.365 28.832 158.365 28.448C158.365 28.128 158.333 27.776 158.269 27.392C158.205 27.008 158.093 26.592 157.933 26.144L156.349 20.912C155.773 20.88 154.957 20.864 153.901 20.864C152.877 20.864 152.029 20.864 151.357 20.864C150.429 20.864 149.453 20.912 148.429 21.008C147.437 21.104 146.669 21.184 146.125 21.248L144.349 26.24C144.061 27.104 143.917 27.728 143.917 28.112C143.917 28.816 144.141 29.328 144.589 29.648C145.069 29.936 145.805 30.08 146.797 30.08H149.533L149.629 30.272L149.341 32.336C149.341 32.336 149.005 32.304 148.333 32.24C147.661 32.176 146.813 32.112 145.789 32.048C144.765 32.016 143.725 32 142.669 32C141.901 32 141.101 32 140.269 32C139.469 32.032 138.781 32.064 138.205 32.096C137.661 32.128 137.389 32.144 137.389 32.144L137.773 29.888C138.669 29.792 139.389 29.488 139.933 28.976C140.477 28.464 141.005 27.536 141.517 26.192L150.877 1.66399L153.901 0.847992H154.285C154.285 0.847992 154.381 1.23199 154.573 1.99999C154.797 2.73599 155.085 3.77599 155.437 5.11999C155.821 6.43199 156.253 7.95199 156.733 9.67999C157.245 11.376 157.773 13.184 158.317 15.104C158.893 17.024 159.485 18.976 160.093 20.96C160.701 22.912 161.309 24.784 161.917 26.576C162.301 27.76 162.813 28.592 163.453 29.072C164.125 29.552 165.149 29.856 166.525 29.984L166.621 30.176L166.285 32.144C166.285 32.144 165.965 32.128 165.325 32.096C164.717 32.064 164.013 32.032 163.213 32C162.413 32 161.741 32 161.197 32C159.981 32 158.813 32.032 157.693 32.096C156.605 32.192 155.725 32.272 155.053 32.336C154.381 32.432 154.045 32.48 154.045 32.48ZM146.989 18.896H151.213C151.853 18.896 152.621 18.864 153.517 18.8C154.413 18.736 155.133 18.688 155.677 18.656L151.885 6.07999H151.549L146.989 18.896Z" fill="black"/>
<path d="M176.653 32.576C175.149 32.576 173.821 32.432 172.669 32.144C171.549 31.888 170.669 31.632 170.029 31.376C169.421 31.088 169.117 30.944 169.117 30.944L168.877 30.464C168.877 30.464 168.909 30.256 168.973 29.84C169.037 29.392 169.101 28.8 169.165 28.064C169.229 27.296 169.293 26.4 169.357 25.376C169.421 24.352 169.453 23.264 169.453 22.112L171.613 21.872C171.613 24.176 171.773 25.936 172.093 27.152C172.413 28.336 173.021 29.152 173.917 29.6C174.813 30.016 176.125 30.224 177.853 30.224C179.837 30.224 181.437 29.76 182.653 28.832C183.901 27.872 184.525 26.576 184.525 24.944C184.525 23.888 184.173 22.976 183.469 22.208C182.765 21.44 181.853 20.736 180.733 20.096C179.645 19.456 178.477 18.816 177.229 18.176C175.949 17.504 174.701 16.784 173.485 16.016C172.301 15.248 171.325 14.368 170.557 13.376C169.789 12.352 169.405 11.152 169.405 9.77599C169.405 8.07999 169.885 6.55999 170.845 5.21599C171.837 3.87199 173.165 2.81599 174.829 2.04799C176.493 1.24799 178.365 0.847992 180.445 0.847992C181.885 0.847992 183.149 0.943993 184.237 1.13599C185.357 1.32799 186.221 1.53599 186.829 1.75999C187.469 1.95199 187.789 2.04799 187.789 2.04799L187.933 2.33599C187.933 2.33599 187.853 2.70399 187.693 3.43999C187.565 4.17599 187.421 5.16799 187.261 6.41599C187.101 7.63199 186.973 8.97599 186.877 10.448L185.005 10.64L184.717 10.4C184.717 10.4 184.733 10.176 184.765 9.72799C184.829 9.24799 184.861 8.63999 184.861 7.90399C184.861 6.20799 184.445 5.03999 183.613 4.39999C182.813 3.75999 181.325 3.43999 179.149 3.43999C177.389 3.43999 175.933 3.88799 174.781 4.78399C173.661 5.64799 173.101 6.73599 173.101 8.04799C173.101 9.00799 173.405 9.87199 174.013 10.64C174.621 11.376 175.421 12.048 176.413 12.656C177.405 13.264 178.477 13.872 179.629 14.48C181.037 15.184 182.413 15.936 183.757 16.736C185.133 17.536 186.269 18.448 187.165 19.472C188.061 20.496 188.509 21.744 188.509 23.216C188.509 25.04 187.997 26.656 186.973 28.064C185.981 29.472 184.589 30.576 182.797 31.376C181.037 32.176 178.989 32.576 176.653 32.576Z" fill="black"/>
<path d="M220.165 32.912C219.141 30.032 218.117 27.152 217.093 24.272C216.069 21.392 215.045 18.528 214.021 15.68C212.997 12.8 211.973 9.91999 210.949 7.03999H210.709C210.709 7.03999 210.661 7.53599 210.565 8.52799C210.501 9.48799 210.405 10.752 210.277 12.32C210.149 13.856 210.005 15.504 209.845 17.264C209.685 19.024 209.541 20.72 209.413 22.352C209.285 23.952 209.173 25.312 209.077 26.432C209.013 27.52 208.981 28.176 208.981 28.4C208.981 29.392 209.477 29.888 210.469 29.888C210.725 29.888 211.109 29.888 211.621 29.888C212.165 29.856 212.437 29.84 212.437 29.84L212.533 30.032L212.101 32.192C212.101 32.192 211.813 32.176 211.237 32.144C210.693 32.112 210.053 32.08 209.317 32.048C208.613 32.016 207.989 32 207.445 32C206.965 32 206.485 32.016 206.005 32.048C205.525 32.08 205.077 32.128 204.661 32.192C204.245 32.256 203.909 32.304 203.653 32.336C203.429 32.368 203.317 32.384 203.317 32.384L203.557 30.176C204.581 30.048 205.317 29.728 205.765 29.216C206.213 28.672 206.501 27.76 206.629 26.48C206.693 25.904 206.789 25.04 206.917 23.888C207.045 22.704 207.189 21.376 207.349 19.904C207.509 18.4 207.653 16.88 207.781 15.344C207.941 13.808 208.085 12.352 208.213 10.976C208.373 9.59999 208.485 8.44799 208.549 7.51999C208.645 6.55999 208.693 5.96799 208.693 5.74399C208.693 5.16799 208.549 4.70399 208.261 4.35199C207.973 3.99999 207.525 3.72799 206.917 3.53599C206.309 3.31199 205.525 3.16799 204.565 3.10399L204.421 2.86399L204.805 1.18399C204.805 1.18399 205.125 1.19999 205.765 1.23199C206.437 1.26399 207.189 1.31199 208.021 1.37599C208.853 1.40799 209.525 1.42399 210.037 1.42399C210.517 1.42399 210.997 1.40799 211.477 1.37599C211.989 1.34399 212.421 1.31199 212.773 1.27999C213.125 1.24799 213.301 1.23199 213.301 1.23199C214.389 4.71999 215.413 7.91999 216.373 10.832C217.365 13.744 218.229 16.256 218.965 18.368C219.733 20.48 220.325 22.128 220.741 23.312C221.189 24.464 221.413 25.04 221.413 25.04H221.653C221.653 25.04 221.861 24.464 222.277 23.312C222.725 22.128 223.333 20.48 224.101 18.368C224.869 16.224 225.749 13.712 226.741 10.832C227.733 7.95199 228.805 4.78399 229.957 1.32799C229.957 1.29599 230.149 1.29599 230.533 1.32799C230.949 1.35999 231.397 1.39199 231.877 1.42399C232.389 1.42399 232.805 1.42399 233.125 1.42399C233.605 1.42399 234.261 1.40799 235.093 1.37599C235.925 1.31199 236.661 1.26399 237.301 1.23199C237.973 1.16799 238.309 1.13599 238.309 1.13599L238.405 1.32799L238.165 3.10399C236.789 3.26399 235.813 3.55199 235.237 3.96799C234.661 4.35199 234.373 4.94399 234.373 5.74399C234.373 6.03199 234.389 6.67199 234.421 7.66399C234.485 8.65599 234.565 9.87199 234.661 11.312C234.757 12.752 234.853 14.304 234.949 15.968C235.077 17.6 235.189 19.232 235.285 20.864C235.413 22.496 235.525 23.984 235.621 25.328C235.845 27.184 236.101 28.416 236.389 29.024C236.677 29.6 237.205 29.888 237.973 29.888C238.261 29.888 238.549 29.872 238.837 29.84C239.157 29.808 239.317 29.792 239.317 29.792L239.413 29.984L238.981 32.144C238.981 32.144 238.725 32.128 238.213 32.096C237.701 32.064 237.077 32.032 236.341 32C235.637 32 234.997 32 234.421 32C233.909 32 233.365 32.016 232.789 32.048C232.213 32.08 231.669 32.128 231.157 32.192C230.645 32.256 230.229 32.304 229.909 32.336C229.589 32.368 229.429 32.384 229.429 32.384L229.621 30.176C230.613 30.048 231.333 29.792 231.781 29.408C232.229 29.024 232.453 28.48 232.453 27.776C232.453 27.488 232.405 26.8 232.309 25.712C232.245 24.592 232.149 23.248 232.021 21.68C231.893 20.112 231.765 18.48 231.637 16.784C231.509 15.088 231.381 13.504 231.253 12.032C231.125 10.56 231.013 9.35999 230.917 8.43199C230.853 7.50399 230.821 7.03999 230.821 7.03999H230.581C229.813 9.15199 229.045 11.28 228.277 13.424C227.509 15.536 226.725 17.664 225.925 19.808C225.157 21.952 224.389 24.096 223.621 26.24C222.853 28.352 222.085 30.464 221.317 32.576L220.165 32.912Z" fill="black"/>
<path d="M248.902 32.576C248.006 32.576 247.334 32.304 246.886 31.76C246.438 31.184 246.214 30.544 246.214 29.84C246.214 29.008 246.486 28.304 247.03 27.728C247.574 27.152 248.294 26.864 249.19 26.864C250.086 26.864 250.758 27.136 251.206 27.68C251.686 28.224 251.926 28.864 251.926 29.6C251.926 30.4 251.654 31.104 251.11 31.712C250.566 32.288 249.83 32.576 248.902 32.576Z" fill="black"/>
<path d="M258.679 32.144L258.007 30.608L275.911 3.53599L267.607 3.82399C266.135 3.88799 264.951 4.14399 264.055 4.59199C263.191 5.00799 262.535 5.67999 262.087 6.60799C261.639 7.53599 261.319 8.81599 261.127 10.448L258.871 10.64C258.871 10.64 258.903 10.368 258.967 9.82399C259.063 9.27999 259.159 8.54399 259.255 7.61599C259.383 6.68799 259.479 5.67999 259.543 4.59199C259.639 3.47199 259.703 2.36799 259.735 1.27999L260.215 0.847992L268.615 1.37599L280.999 1.71199L281.527 3.10399C279.255 6.11199 277.111 9.05599 275.095 11.936C273.079 14.784 271.255 17.44 269.623 19.904C267.991 22.336 266.599 24.432 265.447 26.192C264.327 27.952 263.511 29.248 262.999 30.08L272.743 29.744C274.407 29.712 275.751 29.056 276.775 27.776C277.799 26.496 278.567 24.496 279.079 21.776L281.335 21.536C281.335 21.536 281.287 21.824 281.191 22.4C281.095 22.976 280.967 23.76 280.807 24.752C280.679 25.712 280.551 26.768 280.423 27.92C280.295 29.072 280.199 30.224 280.135 31.376L279.415 32.144L262.039 31.856L258.679 32.144Z" fill="black"/>
<path d="M290.808 32.576C289.912 32.576 289.24 32.304 288.792 31.76C288.344 31.184 288.12 30.544 288.12 29.84C288.12 29.008 288.392 28.304 288.936 27.728C289.48 27.152 290.2 26.864 291.096 26.864C291.992 26.864 292.664 27.136 293.112 27.68C293.592 28.224 293.832 28.864 293.832 29.6C293.832 30.4 293.56 31.104 293.016 31.712C292.472 32.288 291.736 32.576 290.808 32.576Z" fill="black"/>
</svg>
