<svg width="33" height="33" viewBox="0 0 33 33" fill="none" xmlns="http://www.w3.org/2000/svg">
<path d="M16.3537 0.333252C7.54323 0.333252 0.370953 7.49935 0.367752 16.3098C0.366152 19.1261 1.1038 21.8755 2.50234 24.2981L0.333374 32.3364L8.70607 30.3581C11.0407 31.6318 13.6688 32.3004 16.3443 32.302H16.3506C25.1594 32.302 32.3286 25.1343 32.3334 16.3254C32.3366 12.0546 30.6758 8.03918 27.6579 5.01808C24.64 1.99859 20.6293 0.334852 16.3537 0.333252ZM16.3506 3.53356C19.7685 3.53516 22.9806 4.86777 25.3952 7.28081C27.8098 9.69704 29.1363 12.9076 29.1331 16.3223C29.1299 23.3694 23.3977 29.1017 16.3474 29.1017C14.2144 29.1001 12.1016 28.5645 10.2406 27.5484L9.16236 26.9609L7.97162 27.2421L4.82131 27.986L5.59014 25.1294L5.93705 23.848L5.27448 22.6979C4.15757 20.7649 3.56646 18.5548 3.56806 16.3098C3.57126 9.26592 9.30507 3.53356 16.3506 3.53356ZM10.6969 8.93409C10.4297 8.93409 9.99759 9.0341 9.63116 9.43414C9.26472 9.83258 8.23102 10.7976 8.23102 12.7626C8.23102 14.7276 9.66241 16.627 9.86243 16.8942C10.0608 17.1599 12.6254 21.3197 16.685 22.9198C20.0581 24.2496 20.7432 23.9871 21.4761 23.9199C22.2089 23.8543 23.8404 22.9558 24.1732 22.0229C24.506 21.09 24.5068 20.2875 24.4076 20.1227C24.3084 19.9563 24.0419 19.857 23.6419 19.657C23.2435 19.457 21.2799 18.4928 20.9135 18.36C20.5471 18.2272 20.279 18.16 20.0134 18.56C19.7478 18.9601 18.9844 19.8571 18.7508 20.1227C18.5172 20.3899 18.2851 20.4258 17.8851 20.2258C17.485 20.0242 16.1988 19.6014 14.6723 18.2412C13.485 17.1835 12.6838 15.8785 12.4502 15.4785C12.2182 15.08 12.4283 14.8612 12.6283 14.6628C12.8075 14.4836 13.0252 14.1963 13.2253 13.9627C13.4237 13.7291 13.4925 13.5626 13.6253 13.297C13.7581 13.0314 13.6901 12.797 13.5909 12.5969C13.4917 12.3969 12.7148 10.4246 12.3595 9.63416C12.0603 8.97009 11.7443 8.95467 11.4595 8.94347C11.2274 8.93387 10.9625 8.93409 10.6969 8.93409Z" fill="#6D5CDE"/>
</svg>
